PathFileType	4	(X/Y/Z)	Run_300 02
DataRate	CameraRate	NumFrames	NumMarkers	Units	OrigDataRate	OrigDataStartFrame	OrigNumFrames
100	100	6	45	mm	100	134	137
Frame#	Time	LASI			RASI			LPSI			RPSI			RTH1			RTH2			RTH3			LTH1			LTH2			LTH3			RTB1			RTB2			RTB3			RLMAL			RMMAL			LTB1			LTB2			LTB3			RCAL			RTOE			RMT5			LCAL			LTOE			LMT5			LACR			RACR			CLAV			C7			LPSH			RUA1			RUA2			RUA3			RLEL			RMEL			LUA1			LUA2			LUA3			LLEL			LMEL			RFAsuperior			RFAradius			RFAulna			LFAsuperior			LFAradius			LFAulna			
		X1	Y1	Z1	X2	Y2	Z2	X3	Y3	Z3	X4	Y4	Z4	X5	Y5	Z5	X6	Y6	Z6	X7	Y7	Z7	X8	Y8	Z8	X9	Y9	Z9	X10	Y10	Z10	X11	Y11	Z11	X12	Y12	Z12	X13	Y13	Z13	X14	Y14	Z14	X15	Y15	Z15	X16	Y16	Z16	X17	Y17	Z17	X18	Y18	Z18	X19	Y19	Z19	X20	Y20	Z20	X21	Y21	Z21	X22	Y22	Z22	X23	Y23	Z23	X24	Y24	Z24	X25	Y25	Z25	X26	Y26	Z26	X27	Y27	Z27	X28	Y28	Z28	X29	Y29	Z29	X30	Y30	Z30	X31	Y31	Z31	X32	Y32	Z32	X33	Y33	Z33	X34	Y34	Z34	X35	Y35	Z35	X36	Y36	Z36	X37	Y37	Z37	X38	Y38	Z38	X39	Y39	Z39	X40	Y40	Z40	X41	Y41	Z41	X42	Y42	Z42	X43	Y43	Z43	X44	Y44	Z44	X45	Y45	Z45	

134	1.79	952.936506	1088.380093	-431.628564	950.629178	1102.900128	-200.894367	790.576488	1138.74415	-366.566181	789.248565	1135.983305	-277.442548	938.345916	853.572587	-159.656728	1039.263357	827.2517810000001	-176.068712	1017.319017	707.798451	-188.736598	788.30628	892.197348	-482.657829	819.137174	765.521927	-471.949028	734.20551	690.018841	-459.538381	1101.67029	477.161728	-227.535067	1051.622256	425.895811	-187.291859	1058.36838	298.94838	-233.513277	1004.228378	188.277103	-220.922086	1033.932052	209.854068	-298.428097	663.468898	458.523505	-422.413802	534.79407	424.461849	-434.52041	538.766754	311.415101	-394.806208	948.93654	170.736892	-290.60655	1164.478099	126.322815	-247.866526	1088.933358	110.460917	-184.374989	384.666047	273.955772	-337.487302	496.677423	83.85677699999999	-344.944283	438.619208	107.205138	-409.603999	920.926741	1607.518659	-470.989074	866.172364	1583.765535	-166.209319	966.50384	1530.118788	-282.437987	856.281307	1614.600198	-324.381163	846.625983	1563.234628	-502.206762	757.420955	1473.088446	-96.414636	679.37465	1452.616998	-145.240827	647.1163320000001	1405.56575	-102.043104	624.7646570000001	1339.447117	-76.648155	619.252208	1333.157531	-166.832221	876.215693	1472.004912	-557.187419	821.962449	1385.415565	-548.755492	860.871417	1340.117963	-594.1002089999999	884.799118	1262.29393	-605.143049	826.2028769999999	1251.457196	-529.190877	660.367345	1268.654903	-85.209284	855.785715	1232.889551	-117.299335	823.7888809999999	1174.173318	-105.872825	945.9766069999999	1255.875899	-528.526656	1019.100559	1387.46306	-440.178503	1054.210716	1329.28943	-428.507022	
135	1.8	954.2006260000001	1092.398228	-432.290844	952.088702	1105.232745	-202.237296	792.046633	1141.476433	-367.469129	790.584276	1138.405257	-277.851577	934.858831	851.87762	-161.620478	1035.018627	823.062352	-174.873538	1009.713855	704.2709149999999	-188.133006	790.858359	895.943862	-483.614222	822.427633	768.568485	-470.497972	737.003476	693.1132720000001	-459.14561	1103.261813	474.556669	-226.80353	1057.646727	419.359502	-186.714222	1074.717548	293.670239	-233.979148	1030.370795	178.373108	-221.793379	1056.927013	203.433658	-299.37575	660.288726	463.404639	-422.471896	530.055297	435.073495	-434.749865	529.163716	322.053705	-395.586745	975.154755	157.359733	-290.212325	1194.69845	130.517519	-253.70345	1122.46071	106.142044	-189.048113	375.882923	291.615691	-336.953616	478.289662	92.736195	-349.431807	418.666364	122.854986	-411.705251	920.7564630000001	1612.014928	-468.838777	866.18845	1587.01674	-165.105624	966.524807	1533.551026	-281.174382	856.032124	1617.384554	-322.790161	846.849889	1567.264646	-500.491448	756.460045	1476.531404	-96.975914	679.214503	1456.54955	-147.533076	646.18322	1408.803081	-105.795795	623.145634	1342.481102	-81.312924	619.789382	1336.64737	-171.049624	877.022202	1476.823367	-555.721844	822.962931	1390.33469	-548.4282889999999	862.398704	1345.356458	-593.853447	886.511711	1267.183877	-604.650881	826.395399	1256.206635	-529.970401	659.074399	1271.817818	-89.48398299999999	855.3701610000001	1237.147851	-118.190453	823.569364	1178.279353	-107.324316	946.092087	1261.114795	-526.682461	1017.04737	1393.241575	-436.79427	1051.594653	1334.946769	-424.312711	
136	1.81	955.226415	1095.603353	-432.957875	953.254562	1106.715812	-203.506749	792.69497	1142.892376	-368.027702	791.312939	1139.543638	-278.354332	931.531123	849.9290119999999	-162.545457	1030.904544	817.6556869999999	-174.198645	1001.868874	699.529282	-186.428108	795.05664	897.377701	-484.528892	827.829086	769.905198	-468.337253	741.907356	694.327256	-458.542779	1103.324734	471.603951	-226.52126	1061.800684	413.225124	-186.760768	1088.435487	289.423715	-234.904731	1053.052944	170.798187	-222.885051	1076.493312	198.546116	-300.424096	658.7369210000001	467.066215	-422.522201	526.717495	445.554571	-434.018304	520.387871	332.548612	-396.33115	998.032744	146.943629	-290.291786	1219.826975	135.181465	-259.20338	1151.058496	103.475103	-193.895062	366.789639	308.57248	-335.935101	459.702166	104.894435	-354.922306	400.367775	139.690529	-415.117126	920.809013	1615.187503	-466.867305	866.5949429999999	1589.088545	-163.724067	966.688753	1535.811776	-279.907382	856.034525	1619.312028	-321.051992	847.123029	1570.282782	-498.597394	756.091133	1478.474432	-97.241114	679.497802	1458.882748	-149.448723	645.910286	1410.581052	-108.936896	622.439704	1343.961016	-85.17447900000001	621.031781	1338.342014	-174.100148	877.445497	1480.598669	-554.091143	823.418346	1394.204086	-547.908998	863.288108	1349.669046	-593.698351	887.508078	1271.12231	-604.587237	826.416084	1259.960462	-531.123273	658.717598	1273.429779	-92.991145	855.770714	1239.882116	-118.676734	824.208489	1180.803032	-108.553162	945.724142	1264.872057	-525.559495	1015.375404	1396.881599	-433.94743	1048.99291	1338.319011	-420.826104	
137	1.82	956.097582	1097.914678	-433.561921	954.063531	1107.528816	-204.385657	792.6862609999999	1143.122064	-368.42411	791.629863	1139.252086	-279.234954	928.967391	848.147186	-162.066122	1026.980531	811.664162	-173.482262	994.067547	694.3090539999999	-184.653875	800.1890069999999	896.745077	-485.035284	834.067757	769.813597	-466.187391	748.158912	693.790582	-457.785983	1102.206061	468.617991	-226.916937	1064.433969	407.737984	-187.357909	1099.009439	286.191061	-236.509375	1071.08737	165.380276	-224.668234	1091.936724	195.063777	-301.858767	659.018026	469.480505	-422.364744	525.301032	455.743226	-432.495132	512.967747	342.970441	-396.977237	1016.462542	139.637719	-291.521475	1239.172326	139.196579	-264.152717	1173.208305	102.054787	-198.467354	357.687931	325.035402	-334.954623	442.776519	119.49667	-360.897656	384.933823	157.732828	-419.629449	921.159002	1617.07608	-464.84999	867.398907	1589.925517	-162.096862	966.960921	1536.878613	-278.628701	856.30189	1620.47585	-319.218367	847.467715	1572.347524	-496.620308	756.319378	1478.840053	-97.18132799999999	680.236007	1459.558259	-150.782791	646.2902	1410.811685	-111.323834	622.639857	1343.850089	-88.07872500000001	622.78968	1339.140078	-177.926755	877.603644	1483.311028	-552.475942	823.444573	1397.04184	-547.398058	863.52547	1352.966009	-593.630536	887.673493	1274.082061	-604.9113139999999	826.002415	1262.747959	-532.4371190000001	659.275154	1273.468877	-95.595754	856.966807	1241.01051	-118.76246	825.689258	1181.702595	-109.459377	944.854495	1267.099158	-525.151988	1014.085541	1398.335581	-431.71207	1046.633611	1339.352912	-418.253789	
138	1.83	956.777024	1099.105167	-434.073445	954.548642	1107.67562	-204.717819	792.344995	1142.14404	-368.880536	791.710663	1137.5409	-280.498169	927.165568	846.293632	-160.325746	1023.024654	805.38888	-172.459532	987.009923	689.339957	-183.559011	805.269183	894.541338	-484.952975	840.148646	768.486554	-464.664911	755.084287	691.530516	-456.851793	1100.27261	465.764096	-227.804068	1065.713087	403.060456	-188.308911	1105.980171	283.692451	-238.658745	1083.458626	161.494172	-227.425443	1102.764847	192.739463	-304.17187	661.315505	470.474174	-421.806314	526.383425	465.228066	-430.703787	507.547227	353.12425	-397.444312	1029.486377	134.920395	-294.324341	1252.295477	141.693429	-268.548601	1187.970658	101.203592	-202.565109	349.636752	341.281924	-334.271188	428.60279	134.93262	-366.90425	372.865718	176.613261	-424.704724	921.8022989999999	1617.737287	-462.735373	868.56911	1589.497701	-160.313286	967.322529	1536.697281	-277.34097	856.768183	1620.791135	-317.278714	847.896317	1573.490819	-494.647642	757.128137	1477.626644	-96.715902	681.387572	1458.566001	-151.306759	647.292181	1409.395665	-112.76851	623.718132	1342.105408	-89.92812600000001	625.0077209999999	1339.494273	-183.622829	877.600434	1484.941446	-551.047837	823.115006	1398.893271	-547.0484740000001	863.133456	1355.199225	-593.704835	886.92923	1276.068621	-605.571895	824.8602	1264.574832	-533.81308	660.723167	1271.916917	-97.21216099999999	858.931071	1240.515063	-118.448821	827.9698069999999	1180.971352	-109.898294	943.4549060000001	1267.800212	-525.410071	1013.156441	1397.60657	-430.059071	1044.790438	1338.023179	-416.869907	
139	1.84	957.17686	1098.925112	-434.509982	954.823633	1107.060619	-204.611275	791.903461	1139.868444	-369.41561	791.668418	1134.738154	-281.782465	925.512562	843.880416	-157.699733	1019.018843	798.949445	-171.464747	981.633201	685.0068199999999	-182.999438	809.599137	891.122249	-484.364323	845.779569	765.941031	-463.980468	762.3507530000001	687.564588	-455.732552	1097.731647	462.882957	-228.762494	1065.34265	399.006712	-189.490427	1109.036845	281.300121	-241.026659	1089.604641	158.191012	-231.02669	1108.70788	191.064073	-307.80073	665.630105	469.950636	-420.991769	530.215636	473.524653	-429.239208	504.645962	362.584135	-397.775904	1036.515533	131.679261	-298.616592	1259.05326	142.212745	-272.348727	1195.213003	99.85185	-206.435141	344.157339	357.508474	-333.884517	417.005889	150.045362	-372.605139	363.908407	195.719735	-429.770448	922.686865	1617.157328	-460.751379	870.027827	1587.782767	-158.490778	967.761611	1535.223791	-276.058786	857.322012	1620.064921	-315.230824	848.423127	1573.686767	-492.737768	758.4680969999999	1474.869283	-95.782132	682.851579	1455.925739	-150.878659	648.868589	1406.273786	-113.102953	625.6297520000001	1338.675807	-90.687738	627.587679	1338.463918	-189.189171	877.478689	1485.505694	-549.9027599999999	822.415088	1399.839827	-546.917547	862.148058	1356.38839	-594.011634	885.2574499999999	1277.105032	-606.536056	822.941279	1265.460061	-535.301877	663.026421	1268.736893	-97.813508	861.6285329999999	1238.431746	-117.75042	831.010089	1178.627922	-109.844337	941.495937	1267.017059	-526.297516	1012.578192	1394.703045	-428.919448	1043.557962	1334.364185	-416.791945	
